<svg width="318" height="18" viewBox="0 0 318 18" fill="none" xmlns="http://www.w3.org/2000/svg">
<path d="M0.914062 9L107 8.5V9.5L0.914062 9Z" fill="url(#paint0_linear_592_9508)" fill-opacity="0.75"/>
<path d="M120.036 13.12C119.444 13.12 118.892 13.012 118.38 12.796C117.868 12.572 117.42 12.264 117.036 11.872C116.652 11.472 116.352 11.012 116.136 10.492C115.928 9.972 115.824 9.416 115.824 8.824C115.824 8.224 115.928 7.668 116.136 7.156C116.352 6.636 116.648 6.18 117.024 5.788C117.408 5.396 117.852 5.092 118.356 4.876C118.868 4.66 119.42 4.552 120.012 4.552C120.604 4.552 121.152 4.66 121.656 4.876C122.168 5.092 122.616 5.396 123 5.788C123.384 6.18 123.684 6.636 123.9 7.156C124.116 7.676 124.224 8.236 124.224 8.836C124.224 9.428 124.116 9.984 123.9 10.504C123.684 11.024 123.384 11.48 123 11.872C122.624 12.264 122.18 12.572 121.668 12.796C121.164 13.012 120.62 13.12 120.036 13.12ZM120.012 12.04C120.612 12.04 121.136 11.904 121.584 11.632C122.04 11.352 122.4 10.972 122.664 10.492C122.928 10.004 123.06 9.448 123.06 8.824C123.06 8.36 122.984 7.936 122.832 7.552C122.68 7.16 122.468 6.82 122.196 6.532C121.924 6.244 121.604 6.024 121.236 5.872C120.868 5.712 120.46 5.632 120.012 5.632C119.42 5.632 118.896 5.768 118.44 6.04C117.992 6.312 117.636 6.688 117.372 7.168C117.116 7.648 116.988 8.2 116.988 8.824C116.988 9.288 117.06 9.72 117.204 10.12C117.356 10.512 117.564 10.852 117.828 11.14C118.1 11.42 118.42 11.64 118.788 11.8C119.164 11.96 119.572 12.04 120.012 12.04ZM125.579 13V7.3H126.659V13H125.579ZM126.659 9.748L126.251 9.568C126.251 8.84 126.419 8.26 126.755 7.828C127.091 7.396 127.575 7.18 128.207 7.18C128.495 7.18 128.755 7.232 128.987 7.336C129.219 7.432 129.435 7.596 129.635 7.828L128.927 8.56C128.807 8.432 128.675 8.34 128.531 8.284C128.387 8.228 128.219 8.2 128.027 8.2C127.627 8.2 127.299 8.328 127.043 8.584C126.787 8.84 126.659 9.228 126.659 9.748ZM135.707 13.12C135.147 13.12 134.639 12.988 134.183 12.724C133.735 12.46 133.379 12.104 133.115 11.656C132.859 11.2 132.731 10.696 132.731 10.144C132.731 9.584 132.859 9.08 133.115 8.632C133.379 8.184 133.735 7.832 134.183 7.576C134.639 7.312 135.147 7.18 135.707 7.18C136.147 7.18 136.555 7.264 136.931 7.432C137.307 7.592 137.631 7.828 137.903 8.14L137.183 8.86C137.007 8.652 136.791 8.496 136.535 8.392C136.287 8.28 136.011 8.224 135.707 8.224C135.347 8.224 135.027 8.308 134.747 8.476C134.467 8.636 134.247 8.86 134.087 9.148C133.927 9.436 133.847 9.768 133.847 10.144C133.847 10.52 133.927 10.852 134.087 11.14C134.247 11.428 134.467 11.656 134.747 11.824C135.027 11.992 135.347 12.076 135.707 12.076C136.011 12.076 136.287 12.024 136.535 11.92C136.791 11.808 137.011 11.648 137.195 11.44L137.903 12.16C137.639 12.464 137.315 12.7 136.931 12.868C136.555 13.036 136.147 13.12 135.707 13.12ZM141.46 13.12C140.9 13.12 140.396 12.988 139.948 12.724C139.5 12.46 139.144 12.104 138.88 11.656C138.616 11.2 138.484 10.692 138.484 10.132C138.484 9.58 138.616 9.084 138.88 8.644C139.144 8.196 139.5 7.84 139.948 7.576C140.396 7.312 140.9 7.18 141.46 7.18C142.012 7.18 142.512 7.312 142.96 7.576C143.416 7.832 143.776 8.184 144.04 8.632C144.304 9.08 144.436 9.58 144.436 10.132C144.436 10.692 144.304 11.2 144.04 11.656C143.776 12.104 143.416 12.46 142.96 12.724C142.512 12.988 142.012 13.12 141.46 13.12ZM141.46 12.076C141.82 12.076 142.14 11.992 142.42 11.824C142.7 11.656 142.92 11.428 143.08 11.14C143.24 10.844 143.32 10.508 143.32 10.132C143.32 9.764 143.236 9.436 143.068 9.148C142.908 8.86 142.688 8.636 142.408 8.476C142.136 8.308 141.82 8.224 141.46 8.224C141.1 8.224 140.78 8.308 140.5 8.476C140.22 8.636 140 8.86 139.84 9.148C139.68 9.436 139.6 9.764 139.6 10.132C139.6 10.508 139.68 10.844 139.84 11.14C140 11.428 140.22 11.656 140.5 11.824C140.78 11.992 141.1 12.076 141.46 12.076ZM149.685 13V9.676C149.685 9.244 149.549 8.888 149.277 8.608C149.005 8.328 148.653 8.188 148.221 8.188C147.933 8.188 147.677 8.252 147.453 8.38C147.229 8.508 147.053 8.684 146.925 8.908C146.797 9.132 146.733 9.388 146.733 9.676L146.289 9.424C146.289 8.992 146.385 8.608 146.577 8.272C146.769 7.936 147.037 7.672 147.381 7.48C147.725 7.28 148.113 7.18 148.545 7.18C148.977 7.18 149.357 7.288 149.685 7.504C150.021 7.72 150.285 8.004 150.477 8.356C150.669 8.7 150.765 9.068 150.765 9.46V13H149.685ZM145.653 13V7.3H146.733V13H145.653ZM153.033 13V4.912H154.113V13H153.033ZM151.629 8.284V7.3H155.517V8.284H151.629ZM156.587 13V7.3H157.667V13H156.587ZM157.127 6.16C156.927 6.16 156.763 6.096 156.635 5.968C156.507 5.832 156.443 5.664 156.443 5.464C156.443 5.272 156.507 5.112 156.635 4.984C156.763 4.848 156.927 4.78 157.127 4.78C157.327 4.78 157.491 4.848 157.619 4.984C157.747 5.112 157.811 5.272 157.811 5.464C157.811 5.664 157.747 5.832 157.619 5.968C157.491 6.096 157.327 6.16 157.127 6.16ZM163.291 13V9.676C163.291 9.244 163.155 8.888 162.883 8.608C162.611 8.328 162.259 8.188 161.827 8.188C161.539 8.188 161.283 8.252 161.059 8.38C160.835 8.508 160.659 8.684 160.531 8.908C160.403 9.132 160.339 9.388 160.339 9.676L159.895 9.424C159.895 8.992 159.991 8.608 160.183 8.272C160.375 7.936 160.643 7.672 160.987 7.48C161.331 7.28 161.719 7.18 162.151 7.18C162.583 7.18 162.963 7.288 163.291 7.504C163.627 7.72 163.891 8.004 164.083 8.356C164.275 8.7 164.371 9.068 164.371 9.46V13H163.291ZM159.259 13V7.3H160.339V13H159.259ZM168.125 13.12C167.661 13.12 167.241 13.016 166.865 12.808C166.497 12.592 166.209 12.296 166.001 11.92C165.793 11.544 165.689 11.108 165.689 10.612V7.3H166.769V10.564C166.769 10.876 166.821 11.148 166.925 11.38C167.037 11.604 167.197 11.776 167.405 11.896C167.613 12.016 167.857 12.076 168.137 12.076C168.561 12.076 168.893 11.944 169.133 11.68C169.373 11.408 169.493 11.036 169.493 10.564V7.3H170.573V10.612C170.573 11.108 170.469 11.544 170.261 11.92C170.053 12.296 169.765 12.592 169.397 12.808C169.037 13.016 168.613 13.12 168.125 13.12ZM174.661 13.12C174.093 13.12 173.581 12.992 173.125 12.736C172.669 12.472 172.309 12.116 172.045 11.668C171.781 11.22 171.649 10.712 171.649 10.144C171.649 9.584 171.777 9.08 172.033 8.632C172.297 8.184 172.649 7.832 173.089 7.576C173.537 7.312 174.037 7.18 174.589 7.18C175.117 7.18 175.581 7.3 175.981 7.54C176.389 7.78 176.705 8.112 176.929 8.536C177.161 8.96 177.277 9.44 177.277 9.976C177.277 10.056 177.273 10.144 177.265 10.24C177.257 10.328 177.241 10.432 177.217 10.552H172.405V9.652H176.641L176.245 10C176.245 9.616 176.177 9.292 176.041 9.028C175.905 8.756 175.713 8.548 175.465 8.404C175.217 8.252 174.917 8.176 174.565 8.176C174.197 8.176 173.873 8.256 173.593 8.416C173.313 8.576 173.097 8.8 172.945 9.088C172.793 9.376 172.717 9.716 172.717 10.108C172.717 10.508 172.797 10.86 172.957 11.164C173.117 11.46 173.345 11.692 173.641 11.86C173.937 12.02 174.277 12.1 174.661 12.1C174.981 12.1 175.273 12.044 175.537 11.932C175.809 11.82 176.041 11.652 176.233 11.428L176.929 12.136C176.657 12.456 176.321 12.7 175.921 12.868C175.529 13.036 175.109 13.12 174.661 13.12ZM182.582 13L180.326 7.3H181.454L183.086 11.74H182.726L184.346 7.3H184.97L186.59 11.74H186.23L187.862 7.3H188.99L186.746 13H186.11L184.466 8.692H184.862L183.206 13H182.582ZM189.868 13V7.3H190.948V13H189.868ZM190.408 6.16C190.208 6.16 190.044 6.096 189.916 5.968C189.788 5.832 189.724 5.664 189.724 5.464C189.724 5.272 189.788 5.112 189.916 4.984C190.044 4.848 190.208 4.78 190.408 4.78C190.608 4.78 190.772 4.848 190.9 4.984C191.028 5.112 191.092 5.272 191.092 5.464C191.092 5.664 191.028 5.832 190.9 5.968C190.772 6.096 190.608 6.16 190.408 6.16ZM193.416 13V4.912H194.496V13H193.416ZM192.012 8.284V7.3H195.9V8.284H192.012ZM200.99 13V9.676C200.99 9.244 200.854 8.888 200.582 8.608C200.31 8.328 199.958 8.188 199.526 8.188C199.238 8.188 198.982 8.252 198.758 8.38C198.534 8.508 198.358 8.684 198.23 8.908C198.102 9.132 198.038 9.388 198.038 9.676L197.594 9.424C197.594 8.992 197.69 8.608 197.882 8.272C198.074 7.936 198.342 7.672 198.686 7.48C199.03 7.28 199.418 7.18 199.85 7.18C200.282 7.18 200.662 7.276 200.99 7.468C201.326 7.66 201.59 7.928 201.782 8.272C201.974 8.616 202.07 9.012 202.07 9.46V13H200.99ZM196.958 13V4.432H198.038V13H196.958Z" fill="#374151"/>
<path d="M211 8.5L317.086 9L211 9.5V8.5Z" fill="url(#paint1_linear_592_9508)" fill-opacity="0.75"/>
<defs>
<linearGradient id="paint0_linear_592_9508" x1="107" y1="9.50019" x2="6.86786" y2="9.50012" gradientUnits="userSpaceOnUse">
<stop stop-color="#4B4B4B"/>
<stop offset="1" stop-color="#6D6D6D" stop-opacity="0"/>
</linearGradient>
<linearGradient id="paint1_linear_592_9508" x1="211" y1="9.50005" x2="323.038" y2="8.32818" gradientUnits="userSpaceOnUse">
<stop stop-color="#4B4B4B"/>
<stop offset="1" stop-color="#717171" stop-opacity="0"/>
</linearGradient>
</defs>
</svg>
