<svg width="22" height="22" viewBox="0 0 22 22" fill="none" xmlns="http://www.w3.org/2000/svg">
<g id="google">
<path id="Vector" d="M11.2034 5.47895C12.5063 5.45704 13.7654 5.94958 14.7076 6.84978L17.3367 4.22062C15.6775 2.66229 13.4795 1.80668 11.2034 1.83311C7.73753 1.83179 4.56749 3.78605 3.01172 6.88312L6.07423 9.25811C6.79638 7.02863 8.86006 5.50811 11.2034 5.47895Z" fill="#FF3D00"/>
<path id="Vector_2" d="M3.01212 6.8833C1.71211 9.47379 1.71211 12.5261 3.01212 15.1166L6.07458 12.7416C5.6913 11.6122 5.6913 10.3878 6.07458 9.25831L3.01212 6.8833Z" fill="#FFC107"/>
<path id="Vector_3" d="M14.3076 15.6459C11.7372 17.2957 8.31611 16.5495 6.66629 13.9792C6.41833 13.5928 6.21943 13.1772 6.07418 12.7417L3.01172 15.1167C4.56747 18.2138 7.73752 20.168 11.2034 20.1667C13.4348 20.2272 15.6051 19.4328 17.27 17.9459L14.3076 15.6459Z" fill="#4CAF50"/>
<path id="Vector_4" d="M19.8364 9.3335H11.2031V12.8793H16.1364C15.9302 14.0127 15.2693 15.0123 14.3073 15.646C14.3044 15.6479 14.3013 15.6493 14.2984 15.6511C14.3013 15.6493 14.3044 15.6479 14.3073 15.646L17.2697 17.946L17.2698 17.946C19.0942 16.1888 20.0876 13.7401 20.0031 11.2085C20.0036 10.5798 19.9478 9.95229 19.8364 9.3335Z" fill="#1976D2"/>
</g>
</svg>
