<svg width="38" height="38" viewBox="0 0 38 38" fill="none" xmlns="http://www.w3.org/2000/svg">
<rect width="38" height="38" rx="19" fill="#E8E8EA"/>
<path d="M21.7604 12.97C22.1204 13.5025 22.3304 14.14 22.3304 14.83C22.3229 16.63 20.9054 18.0925 19.1204 18.1525C19.0454 18.145 18.9554 18.145 18.8729 18.1525C17.2154 18.1 15.8729 16.8325 15.6929 15.2125C15.4754 13.285 17.0579 11.5 18.9929 11.5" stroke="#323346" stroke-linecap="round" stroke-linejoin="round"/>
<path d="M15.2421 20.92C13.4271 22.135 13.4271 24.115 15.2421 25.3225C17.3046 26.7025 20.6871 26.7025 22.7496 25.3225C24.5646 24.1075 24.5646 22.1275 22.7496 20.92C20.7021 19.5475 17.3196 19.5475 15.2421 20.92Z" stroke="#323346" stroke-linecap="round" stroke-linejoin="round"/>
</svg>
