<svg width="66" height="66" viewBox="0 0 66 66" fill="none" xmlns="http://www.w3.org/2000/svg">
<g clip-path="url(#clip0_848_731)">
<path d="M30.4502 35.793L16.4723 40.8806C15.8732 41.0986 15.6192 41.6433 15.8372 42.2424L20.9248 56.2203C21.1428 56.8194 21.6876 57.0734 22.2866 56.8554L36.2645 51.7678C36.8636 51.5498 37.1176 51.005 36.8996 50.406L31.812 36.4281C31.594 35.829 31.0493 35.575 30.4502 35.793ZM34.5393 50.1344L22.5582 54.4951L18.1975 42.514L30.1786 38.1533L34.5393 50.1344ZM23.1823 15.8246L9.20434 20.9121C8.60529 21.1302 8.35128 21.6749 8.56931 22.2739L13.6569 36.2519C13.8749 36.8509 14.4196 37.1049 15.0187 36.8869L28.9966 31.7993C29.5957 31.5813 29.8497 31.0366 29.6316 30.4375L24.5441 16.4596C24.3261 15.8605 23.7813 15.6065 23.1823 15.8246ZM27.2714 30.1659L15.2903 34.5266L10.9296 22.5456L22.9106 18.1848L27.2714 30.1659ZM43.1507 8.55664L29.1728 13.6442C28.5738 13.8622 28.3197 14.407 28.5378 15.006L33.6253 28.9839C33.8434 29.583 34.3881 29.837 34.9872 29.619L48.9651 24.5314C49.5641 24.3134 49.8181 23.7686 49.6001 23.1696L44.5126 9.19167C44.2945 8.59261 43.7498 8.3386 43.1507 8.55664ZM47.2399 22.898L35.2588 27.2587L30.898 15.2776L42.8791 10.9169L47.2399 22.898ZM52.9624 35.5141L46.9719 37.6944L44.7915 31.7039C44.5735 31.1049 44.0288 30.8508 43.4297 31.0689C42.8306 31.2869 42.5766 31.8316 42.7947 32.4307L44.9751 38.4212L38.9845 40.6016C38.3855 40.8197 38.1314 41.3644 38.3495 41.9634C38.5675 42.5625 39.1123 42.8165 39.7113 42.5985L45.7018 40.4181L47.8822 46.4086C48.1003 47.0077 48.645 47.2617 49.244 47.0437C49.8431 46.8256 50.0971 46.2809 49.8791 45.6818L47.6987 39.6913L53.6892 37.5109C54.2883 37.2929 54.5423 36.7482 54.3243 36.1491C54.1062 35.55 53.5615 35.296 52.9624 35.5141Z" fill="#4162FF"/>
</g>
<defs>
<clipPath id="clip0_848_731">
<rect width="51" height="51" fill="white" transform="translate(0.163258 17.8177) rotate(-20)"/>
</clipPath>
</defs>
</svg>
