<svg width="19" height="18" viewBox="0 0 19 18" fill="none" xmlns="http://www.w3.org/2000/svg">
<path d="M9.66634 4.48296C10.7324 4.46503 11.7625 4.86802 12.5334 5.60455L14.6845 3.45341C13.327 2.17841 11.5286 1.47837 9.66634 1.5C6.83062 1.49891 4.23696 3.09785 2.96405 5.63182L5.46974 7.575C6.06059 5.75088 7.74906 4.50682 9.66634 4.48296Z" fill="#FF3D00"/>
<path d="M2.96411 5.63184C1.90047 7.75133 1.90047 10.2487 2.96411 12.3682L5.46977 10.425C5.15618 9.50091 5.15618 8.49915 5.46977 7.57503L2.96411 5.63184Z" fill="#FFC107"/>
<path d="M12.2062 12.8012C10.1032 14.1511 7.30407 13.5405 5.95421 11.4375C5.75134 11.1214 5.5886 10.7813 5.46976 10.425L2.96411 12.3682C4.237 14.9022 6.83068 16.5012 9.6664 16.5C11.4921 16.5496 13.2677 15.8996 14.63 14.683L12.2062 12.8012Z" fill="#4CAF50"/>
<path d="M16.73 7.63635H9.66638V10.5375H13.7027C13.534 11.4648 12.9933 12.2826 12.2061 12.8011C12.2038 12.8027 12.2013 12.8038 12.1989 12.8053C12.2013 12.8038 12.2038 12.8027 12.2061 12.8012L14.63 14.683L14.63 14.6829C16.1227 13.2452 16.9355 11.2418 16.8664 9.17046C16.8668 8.65602 16.8211 8.14264 16.73 7.63635Z" fill="#1976D2"/>
</svg>
