<svg width="273" height="235" viewBox="0 0 273 235" fill="none" xmlns="http://www.w3.org/2000/svg">
<path d="M64.6825 194.105L49.6376 199.581C47.055 200.521 45.7234 203.377 46.6634 205.959L55.4913 230.214C56.4313 232.796 59.287 234.128 61.8696 233.188L268.294 158.055C270.877 157.115 272.209 154.26 271.269 151.677L243.407 75.1279C243.162 74.4537 242.773 73.8405 242.269 73.3304L190.44 20.9333C187.409 17.8689 182.181 19.8448 181.934 24.1479L177.423 102.795C177.31 104.78 176.025 106.506 174.157 107.186L158.585 112.854C157.443 113.27 156.188 113.253 155.058 112.807L152.48 111.791C149.375 110.567 145.969 112.686 145.695 116.012L144.39 131.85C144.276 133.23 143.37 134.417 142.069 134.89C140.682 135.395 139.127 134.988 138.166 133.868L105.333 95.604C103.983 94.0316 101.801 93.4597 99.8539 94.1684L97.2889 95.102C95.4207 95.7819 93.3271 95.2847 91.9641 93.8375L91.2144 93.0414C90.0485 91.8034 88.2576 91.3782 86.6596 91.9598C85.0309 92.5526 83.9242 94.0738 83.8616 95.806L82.1774 142.366C82.1042 144.391 80.8104 146.17 78.9063 146.863L70.3269 149.985C68.3162 150.717 66.9984 152.652 67.0542 154.792L67.9551 189.299C68.011 191.438 66.6932 193.373 64.6825 194.105Z" fill="url(#paint0_linear_848_714)"/>
<path d="M46.3714 201.002L65.7915 193.934C67.8095 193.199 69.1288 191.253 69.0636 189.106L68.0173 154.624C67.9522 152.477 69.2714 150.531 71.2894 149.797L79.6501 146.753C81.5626 146.057 82.8585 144.267 82.9221 142.233L84.3782 95.6621C84.4316 93.9529 85.5205 92.4484 87.1274 91.8636V91.8636C88.7044 91.2896 90.4717 91.7141 91.616 92.9416L92.3701 93.7506C93.732 95.2116 95.8354 95.7168 97.7123 95.0337L100.134 94.1522C102.089 93.4406 104.28 94.0203 105.628 95.6054L138.29 134.029C139.233 135.139 140.767 135.544 142.135 135.046V135.046C143.419 134.579 144.311 133.404 144.416 132.041L145.631 116.275C145.889 112.922 149.33 110.785 152.45 112.041L154.856 113.009C155.995 113.467 157.263 113.489 158.416 113.069L173.699 107.506C175.576 106.823 176.863 105.084 176.967 103.089L181.064 24.6445C181.29 20.3155 186.558 18.3253 189.59 21.4234L241.743 74.7145" stroke="#1C1C4B" stroke-width="2.13275" stroke-linecap="round" stroke-linejoin="round"/>
<defs>
<linearGradient id="paint0_linear_848_714" x1="108.429" y1="39.968" x2="165.082" y2="195.622" gradientUnits="userSpaceOnUse">
<stop stop-color="#1C1C4B" stop-opacity="0.25"/>
<stop offset="1" stop-color="white" stop-opacity="0"/>
</linearGradient>
</defs>
</svg>
