<svg width="1829" height="793" viewBox="0 0 1829 793" fill="none" xmlns="http://www.w3.org/2000/svg">
<g filter="url(#filter0_f_152_2707)">
<path d="M1442.02 483.536C1441.38 484.566 1440.29 483.224 1439.65 484.065C1438.86 483.215 1437.83 483.735 1436.92 483.442C1436.47 483.546 1437.38 482.157 1436.21 482.781C1435.33 483.05 1434.4 483.165 1433.48 483.121L1433.11 481.175L1432.68 482.441L1430.75 481.109L1431.18 479.55C1430.66 479.191 1430.06 478.971 1429.43 478.91C1428.81 478.849 1428.18 478.949 1427.61 479.201L1430.34 480.523L1429.64 482.006C1429.19 481.779 1429.51 480.372 1428.33 481.26L1428.96 482.714C1428.77 482.818 1428.62 482.96 1428.55 482.922C1427.74 482.478 1426.92 481.978 1426.12 481.543C1425.37 482.969 1423.98 483.489 1422.33 484.008L1422.78 482.658C1422.32 482.355 1422.12 481.383 1421.1 481.496L1421.51 483.782C1420.7 484.16 1420.6 484.377 1420.85 484.925C1419.69 485.869 1419.5 484.056 1418.58 483.98L1418.35 485.557C1417.84 485.472 1417.58 484.811 1416.9 485.369C1415.99 486.143 1414.66 486.483 1413.71 487.258C1412.76 488.032 1412 487.664 1411.05 487.258L1410.95 488.731C1409.65 488.476 1408.64 489.354 1407.48 489.742C1404.69 490.686 1402.02 491.857 1399.28 492.915C1396.85 493.86 1394.47 494.956 1392.05 495.957C1390.07 496.778 1388.07 497.6 1386.06 498.346C1383.33 499.367 1380.68 500.651 1377.97 501.747C1375.86 502.606 1373.74 503.589 1371.6 504.533C1370.91 504.845 1370.28 505.478 1369.39 505.251C1369.16 505.234 1368.93 505.312 1368.75 505.468C1366.84 507.253 1364.14 507.253 1362.1 508.736C1361.96 508.824 1361.8 508.858 1361.64 508.831C1359.58 508.406 1358.07 509.775 1356.38 510.578C1353.71 511.802 1350.94 512.772 1348.1 513.478C1347.49 513.581 1346.9 513.762 1346.33 514.016C1345.83 514.3 1345.31 514.092 1344.87 514.29C1344.29 514.543 1343.76 514.916 1343.32 515.386C1342.75 516.037 1342.41 514.696 1341.71 515.386C1341.22 515.877 1340.24 515.82 1339.57 516.189C1338.47 516.784 1337.09 516.538 1336.13 517.577C1335.95 517.671 1335.74 517.719 1335.53 517.719C1335.33 517.719 1335.12 517.671 1334.93 517.577C1334.32 517.275 1334.1 517.171 1333.72 517.974C1333.51 518.408 1332.49 518.512 1331.81 518.616C1329.66 518.975 1327.72 520.26 1325.43 520.184C1323.68 521.44 1321.57 521.308 1319.63 521.837C1319.19 521.96 1318.72 522.139 1318.3 522.234C1317.46 522.404 1316.61 522.026 1315.73 522.687C1315.11 523.159 1313.99 522.394 1313.22 523.235C1313.07 523.405 1312.4 523.235 1312.11 523.046C1311.33 522.498 1311.71 523.367 1311.53 523.471C1311.34 523.575 1310.82 523.471 1310.52 523.594C1309.21 524.228 1307.76 524.467 1306.34 524.283C1303.79 523.943 1301.36 524.944 1298.84 524.878C1298.08 524.878 1297.29 525.417 1296.52 524.822C1295.08 525.587 1293.64 524.491 1292.21 524.822C1291.61 524.963 1290.9 525.473 1290.45 525.275C1289.31 524.914 1288.11 524.754 1286.91 524.803C1285.73 524.699 1284.56 524.472 1283.39 524.302C1283.23 524.302 1282.99 524.302 1282.93 524.227C1282.43 523.424 1281.61 523.905 1281.05 523.698C1279.79 523.235 1278.4 523.528 1277.2 522.753C1276.4 522.346 1275.67 521.811 1275.02 521.166L1274.48 522.375C1272.66 520.93 1269.98 521.157 1268.46 518.682H1266.64C1266.41 518.248 1266.23 517.624 1266.05 517.624C1264.78 517.624 1263.72 517.558 1263.81 515.735C1263.81 515.461 1263.15 515.14 1262.31 514.46L1263.03 516.642C1262.07 515.971 1261.37 515.527 1260.72 515.027C1260.04 514.621 1259.43 514.112 1258.9 513.516C1258.37 512.788 1257.48 512.571 1257.02 511.797C1256.63 511.084 1256.16 510.426 1255.61 509.841C1255.03 509.246 1254.7 508.443 1253.95 507.952C1253.43 507.622 1253.33 506.583 1253.04 505.855L1253.69 505.185L1254.45 505.884C1254.38 505.355 1254.45 505.005 1254.29 504.788C1253.68 504.028 1252.89 503.451 1251.99 503.116C1251.65 502.937 1251.19 502.71 1251.08 502.398C1250.97 502.087 1251.08 501.341 1250.95 500.906C1250.81 500.472 1250.03 500.339 1250.03 500.075C1250.03 498.734 1249.12 497.534 1249.49 496.165C1248.58 493.983 1249.14 491.669 1249 489.421C1248.71 485.246 1249.85 481.317 1251.17 477.482C1252.68 473.161 1254.85 469.12 1257.6 465.515C1259.51 462.964 1261.32 460.367 1263.39 457.958C1266.2 454.616 1268.79 451.085 1271.15 447.389C1271.87 446.265 1272.24 444.943 1273.04 443.809C1273.75 442.686 1274.29 441.456 1274.63 440.163C1274.95 438.994 1275.18 437.8 1275.31 436.593C1275.45 435.648 1275.03 434.581 1275.79 433.693C1275.94 433.523 1275.79 433.042 1275.73 432.749C1275.66 432.456 1275.35 432.012 1275.33 431.634C1275.16 429.017 1274.42 426.474 1273.15 424.201C1271.89 421.927 1270.15 419.983 1268.05 418.515C1265.56 416.626 1262.9 415.171 1260.36 413.461C1256.79 411.043 1252.99 409.032 1249.43 406.585C1246.7 404.696 1243.73 403.043 1240.88 401.277C1237.68 399.303 1234.27 397.659 1231.43 395.081C1229.87 394.816 1229.03 393.324 1227.67 392.691C1226.14 391.983 1225.12 390.528 1223.71 389.565C1222.16 388.355 1220.69 387.036 1219.32 385.617C1218.48 384.852 1217.84 383.869 1216.73 383.388C1216.14 383.077 1215.68 382.557 1215.44 381.923C1215 380.743 1214.02 380.119 1213.28 379.241C1209.72 375.161 1206.99 370.373 1205.26 365.168C1204.55 362.967 1204.35 360.634 1203.32 358.556C1203.6 356.667 1202.69 354.929 1202.78 353.115C1202.87 351.302 1202.48 349.432 1202.87 347.722C1203.44 345.162 1203.37 342.404 1204.78 340.062C1205.24 336.492 1208.57 330.258 1210.08 327.877C1211.93 325.18 1214.14 322.763 1216.64 320.699C1217.89 319.49 1219.4 318.62 1221.06 318.168C1222.18 317.913 1223.19 317.318 1224.34 317.034C1225.28 316.656 1226.32 316.626 1227.28 316.949C1227.66 317.11 1228.23 316.666 1228.73 316.637C1229.64 316.562 1230.56 316.562 1231.46 316.637C1232.14 316.704 1232.77 317.384 1233.49 316.751C1234.25 317.544 1235.24 316.864 1236.05 317.148C1236.87 317.431 1237.42 317.884 1238.14 318.092C1239.31 318.498 1240.52 318.782 1241.69 319.15C1242.06 319.252 1242.42 319.412 1242.75 319.622C1244.58 321.001 1246.86 321.398 1248.91 322.248C1251.12 323.193 1253.47 323.788 1255.55 324.893C1257.07 325.677 1258.7 326.168 1260.25 326.782C1261.8 327.396 1263.45 328.312 1265.11 328.926C1268.45 330.305 1271.73 331.863 1274.92 333.592C1279.08 335.657 1283.24 337.729 1287.38 339.807C1294.61 343.462 1301.83 347.165 1309.07 350.801C1310.83 351.729 1312.67 352.504 1314.56 353.115C1315.47 353.389 1316.21 353.984 1317.11 354.211C1318.47 354.551 1319.84 354.938 1321.17 355.231C1322.27 355.313 1323.36 355.506 1324.42 355.807C1326.16 356.563 1328.07 356.582 1329.82 357.186C1331.58 357.791 1333.72 356.988 1335.29 355.599C1335.98 354.995 1336.55 354.249 1337.23 353.616C1339.86 351.113 1340.48 348.128 1339.39 344.652C1338.78 343.153 1338.44 341.554 1338.38 339.93C1337.38 338.985 1338.38 337.427 1337.43 336.473C1337.64 334.584 1337.11 332.695 1337.76 330.739C1338.3 329.348 1338.52 327.85 1338.41 326.357C1337.94 322.38 1338.76 318.423 1338.99 314.475C1339.24 311.662 1339.77 308.885 1340.59 306.191C1341.1 304.302 1341.92 302.621 1342.54 300.835C1343.4 298.852 1344.49 296.987 1345.79 295.282C1348.34 291.63 1351.56 288.544 1355.28 286.205C1357.9 284.384 1360.74 282.924 1363.72 281.86C1364.98 281.444 1366.35 281.303 1367.6 280.915C1368.85 280.528 1370.4 280.915 1371.62 280.424C1372.83 279.987 1374.13 279.852 1375.4 280.027C1377.76 280.235 1380.11 280.623 1382.44 281.029C1384.7 281.553 1386.89 282.303 1389 283.267C1391.84 284.339 1394.5 285.838 1396.92 287.716C1397.33 287.952 1397.71 288.241 1398.05 288.575C1399.55 290.578 1401.11 292.552 1402.43 294.677C1404.54 298.053 1407.22 301.012 1410.33 303.414C1410.81 303.872 1411.23 304.385 1411.6 304.944C1412.22 304.624 1412.89 304.392 1413.57 304.255C1414.2 304.179 1414.82 304.007 1415.39 303.745C1416.04 303.551 1416.72 303.551 1417.36 303.745C1418 303.962 1418.35 302.961 1419.04 303.499C1419.23 303.65 1419.81 303.272 1420.2 303.131C1420.65 303.025 1421.09 302.866 1421.51 302.658C1422.09 302.281 1422.31 303.395 1422.95 302.923C1423.29 302.668 1423.86 302.781 1424.33 302.668C1424.79 302.555 1425.35 302.281 1425.87 302.167C1426.6 302.026 1427.24 302.488 1427.91 302.592C1428.37 302.668 1428.91 301.827 1429.48 301.648C1430.26 301.55 1431.03 301.392 1431.78 301.176C1432.49 300.873 1433.73 300.609 1434.08 302.12C1434.08 302.214 1434.82 302.12 1435.28 302.12L1434.75 300.968C1435.55 300.628 1436.16 299.541 1437.13 300.505C1437.48 299.938 1437.79 300.505 1438.04 300.505C1438.68 300.42 1438.96 298.805 1439.96 299.957C1440.62 299.624 1441.3 299.346 1442.01 299.126C1442.3 299.05 1442.73 299.579 1443.02 299.494C1443.3 299.409 1443.73 298.654 1444.21 299.249C1444.69 299.844 1444.87 298.965 1445.12 299.145C1445.38 299.324 1445.37 299.702 1445.49 299.995C1447.16 299.447 1447.16 299.447 1447.57 297.907C1448 298.078 1448.42 298.29 1448.81 298.54C1449.09 298.823 1449.34 299.14 1449.56 299.485L1450.38 298.068C1453.86 299.013 1454.13 298.946 1455.37 296.576H1457.05L1457.5 297.52C1457.81 296.226 1457.81 296.226 1459.06 295.518C1459.59 295.367 1458.64 296.897 1459.78 296.169C1460.09 295.973 1460.45 295.876 1460.81 295.889C1461.17 295.903 1461.51 296.027 1461.81 296.245C1462.01 296.337 1462.24 296.384 1462.46 296.384C1462.69 296.384 1462.91 296.337 1463.12 296.245C1463.9 295.943 1465.02 295.952 1464.87 294.507C1464.87 294.262 1465.26 293.808 1465.92 294.29C1466.59 294.772 1467.55 294.677 1468.55 294.875L1468.08 293.44C1469.47 293.959 1470.62 294.299 1471.72 293.109C1472.06 292.731 1472.55 293.572 1473.3 293.109C1474.31 292.467 1475.68 292.429 1477.06 292.089L1477.22 290.927C1477.35 290.861 1477.42 290.795 1477.49 290.805C1478.72 290.777 1479.94 290.603 1481.13 290.285C1482.31 289.917 1483.5 289.577 1484.69 289.256C1490.27 287.744 1495.62 285.477 1501.14 283.806C1505.06 282.615 1508.98 281.397 1512.98 280.386C1516.33 279.536 1519.7 278.658 1523 277.553C1524.88 277.045 1526.8 276.639 1528.73 276.334C1529.33 276.202 1529.91 275.957 1530.55 275.834C1531.55 275.626 1532.56 275.484 1533.56 275.314C1534.58 275.215 1535.59 275.032 1536.58 274.766C1538.73 274.011 1541.03 274.105 1543.2 273.321C1544.42 272.887 1545.87 273.265 1547.2 272.783C1548.31 272.386 1549.71 272.707 1550.66 272.141C1551.78 271.479 1552.95 271.848 1554.08 271.3C1555.21 270.752 1556.72 271.215 1558.06 270.743C1558.6 270.554 1559.41 270.998 1560.02 271.328C1560.36 271.609 1560.79 271.752 1561.23 271.729C1561.67 271.707 1562.09 271.521 1562.4 271.206C1563.89 270.402 1565.46 269.766 1567.08 269.307C1567.99 270.252 1568.81 269.401 1569.91 269.052C1569.78 269.609 1569.71 269.997 1569.62 270.28C1569.53 270.563 1569.45 270.837 1569.32 271.272C1570.46 270.884 1570.5 270.063 1570.38 269.156C1570.85 269.43 1571.23 269.779 1571.29 269.704C1571.54 269.557 1571.82 269.48 1572.1 269.48C1572.39 269.48 1572.67 269.557 1572.91 269.704C1573.32 269.845 1573.91 269.383 1574.43 269.26C1574.75 269.198 1575.09 269.198 1575.42 269.26C1575.89 269.345 1576.26 270.261 1576.83 269.477C1577.4 268.693 1577.86 269.94 1578.19 269.581C1579.1 268.561 1579.81 269.742 1580.59 269.817C1581.37 269.893 1582.14 270.006 1582.31 271.045C1582.43 271.125 1582.56 271.179 1582.69 271.201C1582.83 271.224 1582.97 271.216 1583.1 271.177C1583.45 270.951 1583.74 270.544 1584.14 270.941C1585.24 272.008 1586.87 272.15 1587.93 273.293C1588.18 273.602 1588.54 273.801 1588.92 273.85C1589.67 273.794 1589.97 274.351 1590.3 274.795C1590.75 275.399 1591.27 275.939 1591.86 276.4C1592.49 276.892 1592.9 277.534 1593.9 277.6C1594.66 277.647 1595.06 278.809 1595.98 279.158C1598.56 280.217 1601.01 281.597 1603.27 283.267C1605.56 284.737 1607.74 286.376 1609.81 288.169C1611.05 289.341 1612.38 290.455 1613.59 291.683C1615.54 293.657 1616.86 296.151 1618.6 298.295C1621.02 301.242 1622.41 304.718 1624.01 308.099C1625.38 311.115 1626.41 314.284 1627.08 317.544C1627.54 319.556 1627.48 321.738 1628.49 323.618C1628.51 323.7 1628.51 323.79 1628.49 323.873C1628.11 325.913 1629.07 327.83 1629 329.842C1628.92 331.854 1629 333.8 1629 335.764C1629 336.558 1628.64 337.342 1628.54 338.135C1628.55 338.876 1628.39 339.609 1628.09 340.279C1627.78 340.827 1627.95 341.658 1627.6 342.376C1627.39 342.801 1627.9 343.566 1628.01 344.189C1628.12 344.813 1628.09 345.531 1627.17 345.578C1626.98 346.966 1625.88 348.062 1625.69 349.299C1625.32 351.727 1623.49 353.351 1622.96 355.618C1621.84 356.308 1622.1 357.857 1621.07 358.707C1620.27 359.378 1619.91 360.596 1619.25 361.541C1618.6 362.485 1617.74 363.43 1616.98 364.44C1616.84 364.629 1616.58 364.875 1616.62 365.035C1616.95 366.528 1615.82 367.16 1615.04 367.982C1613.78 369.333 1612.52 370.712 1611.17 371.978C1608.91 374.2 1606.47 376.225 1603.89 378.032C1602.16 379.203 1600.75 380.922 1598.97 381.942C1596.98 383.076 1595.19 384.474 1593.28 385.72C1590.85 387.27 1588.33 388.667 1585.85 390.103C1583.36 391.539 1580.51 392.937 1577.9 394.486C1576.44 395.543 1574.9 396.49 1573.31 397.319C1571.05 398.264 1569.13 399.728 1567.04 400.899C1564.44 402.354 1562.07 404.233 1559.61 405.943C1557.49 407.407 1555.84 409.409 1554.01 411.213C1553.32 412.026 1552.51 412.726 1551.62 413.291C1550.72 413.863 1550.03 414.721 1549.64 415.738C1548.67 417.722 1547.86 419.784 1547.22 421.906C1547.1 422.817 1547.02 423.734 1546.99 424.654C1546.89 425.344 1547.58 426.439 1546.17 426.609C1546.09 426.609 1546.03 427.214 1546.02 427.554C1546.02 429.348 1546.02 431.152 1546.02 432.957C1546.02 434.128 1546.93 435.138 1546.52 436.347C1547.54 437.386 1546.78 438.86 1547.43 440.126C1548 441.202 1547.75 442.704 1548.03 443.979C1548.4 445.604 1549.23 447.181 1549.31 448.806C1549.41 450.742 1550.39 452.338 1550.68 454.19C1550.94 455.88 1552.04 457.429 1552.3 459.12C1552.74 461.324 1553.28 463.503 1553.94 465.647C1554.01 465.864 1553.68 466.204 1553.52 466.525L1554.43 466.837C1554.48 468.451 1554.79 470.046 1555.34 471.559C1555.44 472.221 1555.48 472.892 1555.46 473.562C1555.56 474.195 1555.86 474.79 1555.92 475.451C1555.92 476.189 1556.08 476.916 1556.4 477.576C1556.73 478.214 1556.91 478.929 1556.9 479.654C1556.9 480.393 1557.08 481.12 1557.43 481.76C1557.8 482.365 1556.47 483.007 1557.52 483.65C1558.26 484.084 1557.65 485.019 1557.97 485.539C1558.72 486.691 1558.44 488.06 1558.83 489.317C1559.08 490.167 1559.27 491.035 1559.4 491.914C1559.54 492.774 1559.18 493.728 1559.84 494.493C1559.04 494.937 1559.9 495.267 1559.94 495.645C1559.97 496.023 1560.16 496.41 1560.22 496.807C1560.25 497.269 1560.25 497.733 1560.22 498.195C1560.22 498.375 1560.04 498.677 1560.1 498.724C1561.41 499.801 1560.72 501.558 1561.34 502.842C1561.54 503.531 1561.7 504.235 1561.79 504.949C1562.07 505.94 1562.62 506.913 1562.41 508.075C1562.38 508.639 1562.55 509.195 1562.9 509.634C1563.33 510.339 1563.5 511.188 1563.36 512.014C1563.3 513.251 1563.51 513.194 1563.79 514.526C1564.07 515.858 1564.81 516.925 1564.82 518.21C1564.83 519.494 1566.18 520.486 1564.94 521.695C1564.94 521.695 1565.31 522.149 1565.5 522.394C1566.02 523.018 1565.95 523.811 1566.15 524.529C1566.3 524.933 1566.36 525.369 1566.32 525.8C1566.27 526.232 1566.14 526.648 1565.91 527.013L1566.65 527.192C1566.7 527.249 1566.81 527.306 1566.82 527.372C1566.99 528.845 1567.15 530.319 1567.35 531.783C1567.51 533.086 1566.9 534.465 1567.81 535.712C1568.1 536.118 1567.01 536.713 1567.81 537.384C1567.99 537.526 1567.61 538.328 1567.49 538.867L1568.34 539.169C1568.27 540.643 1566.7 541.852 1567.78 543.438C1567.01 543.769 1565.77 543.533 1565.89 545.157L1566.95 544.61C1567.11 544.742 1567.35 544.846 1567.34 544.931C1567.34 545.507 1567.23 546.083 1567.17 546.659C1567.13 546.83 1567.1 547.003 1567.09 547.179C1568.37 547.623 1567.03 548.803 1567.79 549.606C1568.54 550.409 1567.56 551.495 1567.28 552.383C1567.05 553.161 1566.91 553.962 1566.85 554.773C1566.73 555.916 1566.8 557.2 1566.29 558.126C1565.78 559.051 1566.17 560.128 1565.74 560.959C1565.16 561.736 1564.85 562.697 1564.87 563.68C1563.72 565.068 1563.81 567.014 1562.87 568.487C1562.69 568.771 1562.25 568.884 1561.91 569.092V571.633C1561.25 572.039 1560.36 572.19 1560.37 573.248C1559.16 573.918 1560.74 574.683 1560.29 575.449C1560.09 575.449 1559.77 575.6 1559.65 575.449C1559.33 575.175 1559.15 574.891 1558.74 575.382C1558.45 575.722 1558.62 575.817 1558.74 576.138C1559.04 576.988 1558.38 578.169 1558.23 578.027C1557.32 577.083 1557.21 578.32 1556.78 578.537C1556.68 578.602 1556.6 578.691 1556.54 578.797C1556.48 578.902 1556.45 579.021 1556.45 579.142C1556.84 580.728 1555.58 581.125 1554.68 581.682C1552.09 583.26 1552.07 583.231 1549.97 583.316C1549.93 583.807 1549.93 584.3 1549.97 584.79C1550.02 585.086 1549.98 585.391 1549.85 585.659C1549.72 585.927 1549.51 586.143 1549.24 586.273C1547.75 587.262 1546.2 588.169 1544.62 588.993C1543.14 589.834 1541.54 590.432 1539.88 590.769C1537.46 591.09 1535.18 592.204 1532.65 592.034C1530.26 591.874 1527.85 591.978 1525.46 592.034C1522.9 592.034 1520.5 591.269 1518.05 590.674C1516.4 590.281 1514.79 589.718 1513.25 588.993C1512.25 588.468 1511.12 588.264 1510 588.407C1508.45 588.672 1507.07 588.011 1505.7 587.387C1502.26 585.701 1499 583.62 1496 581.182C1494.33 580.081 1492.76 578.816 1491.31 577.404C1488.94 574.714 1487.08 571.574 1485.85 568.157C1484.98 566.109 1483.94 564.148 1482.72 562.301C1480.43 558.683 1478.98 555.226 1476.86 550.645C1475.09 546.867 1473.8 542.843 1472.31 538.952C1471.52 536.893 1470.63 534.853 1469.96 532.737C1469.35 530.591 1468.48 528.535 1467.37 526.616C1466.65 525.473 1466.22 524.019 1465.49 522.838C1464.22 520.565 1463.07 518.215 1462.06 515.801C1460.74 512.968 1459.33 510.134 1458.16 507.178C1457.15 504.561 1455.56 502.313 1454.52 499.707C1453.48 497.1 1452.16 494.71 1450.92 492.245C1449.88 489.843 1448.03 487.915 1445.72 486.823C1444.22 486.097 1442.94 484.961 1442.02 483.536ZM1435.32 475.035L1435.67 474.676C1435.54 474.554 1435.39 474.318 1435.28 474.327C1434.37 474.421 1433.15 474.412 1432.82 474.053C1431.51 472.636 1429.88 473.194 1428.46 473.477C1427.15 473.9 1425.89 474.483 1424.71 475.215C1424.34 475.445 1423.93 475.617 1423.51 475.725C1423.34 475.725 1423.12 475.177 1422.82 475.649C1422.62 475.961 1422.46 476.292 1422.03 477.094C1423.53 476.471 1424.52 478.256 1425.68 476.906C1425.68 476.906 1426.27 477.198 1426.29 477.387C1426.28 477.5 1426.3 477.613 1426.36 477.711C1426.41 477.81 1426.49 477.891 1426.59 477.944C1426.68 477.996 1426.79 478.019 1426.9 478.01C1427.01 478 1427.11 477.957 1427.2 477.888C1428.46 477.113 1429.87 477.557 1431.2 477.34L1431.38 476.207L1432.48 477.349L1432.2 477.453L1433.3 478.596C1433.52 477.793 1432.75 476.339 1434.32 475.819C1434.67 476.138 1435.1 476.337 1435.56 476.388C1436.02 476.439 1436.48 476.339 1436.89 476.103L1435.32 475.035ZM1366.42 295.234L1363.38 293.61L1362.75 294.195L1363.16 294.687L1359.85 297.388C1359.93 297.501 1360.24 297.794 1360.2 297.86C1359.84 298.484 1359.38 299.041 1359.01 299.664C1358.18 301.053 1357.19 302.422 1357.97 304.245C1359.06 303.471 1359.64 301.941 1361.2 302.082C1361.03 301.657 1360.68 301.138 1360.8 300.958C1361.27 300.002 1361.92 299.159 1362.73 298.484C1363.52 298.024 1364.13 297.307 1364.49 296.443C1364.79 295.291 1365.53 295.631 1366.42 295.234ZM1550.33 573.248C1550.96 572.303 1551.57 571.519 1552 570.669C1553.41 567.836 1555.77 565.493 1556.03 562.093C1556.03 561.961 1556.27 561.857 1556.37 561.724C1557.13 560.779 1557.52 559.573 1557.47 558.343C1557.43 557.03 1557.72 555.73 1558.31 554.565C1558.39 554.433 1558.45 554.283 1558.48 554.127C1558.5 553.97 1558.5 553.809 1558.46 553.654C1558.43 553.499 1558.36 553.354 1558.27 553.226C1558.18 553.098 1558.07 552.991 1557.93 552.912C1557.57 553.3 1557.26 553.739 1557.02 554.215C1556.75 554.962 1556.72 555.802 1556.48 556.567C1555.83 558.683 1555.45 560.903 1554.31 562.839C1554.12 563.099 1554.03 563.414 1554.03 563.736C1554.11 564.349 1554.06 564.972 1553.87 565.558C1553.68 566.145 1553.36 566.678 1552.94 567.118C1551.58 568.799 1551.27 571.085 1549.54 572.407L1550.33 573.248ZM1549.84 513.251C1549.49 513.95 1549.03 514.63 1549.13 514.734C1549.84 515.48 1549.45 516.359 1549.52 517.161C1549.67 518.008 1549.67 518.875 1549.52 519.721C1549.26 520.524 1550.43 521.166 1549.6 521.894C1550.38 522.545 1550.01 523.452 1550.05 524.245C1550.1 525.039 1550.05 525.965 1550.05 526.824C1550.05 530.083 1550.05 533.351 1550.05 536.609C1550.08 536.928 1550.14 537.244 1550.22 537.554C1550.41 536.194 1550.88 534.919 1550.97 533.662C1551.19 530.649 1550.97 527.608 1551.49 524.595C1551.73 523.329 1551.21 521.969 1551.14 520.694C1550.9 518.181 1550.46 515.692 1549.84 513.251ZM1582.36 302.942C1582.81 303.244 1583.2 303.518 1583.59 303.764C1583.98 304.009 1584.38 304.255 1584.78 304.5C1584.13 305.728 1584.13 305.719 1584.94 306.323C1585.25 306.559 1585.72 306.862 1585.75 307.183C1585.93 308.43 1586.67 307.702 1587 307.759C1586.93 306.814 1586.86 305.993 1586.78 305.143C1587.85 304.425 1586.78 303.707 1586.78 303.008C1586.68 302.54 1586.44 302.115 1586.1 301.789C1586.05 301.723 1585.51 302.12 1585.14 302.337L1584.28 300.448L1585.74 301.072C1586.17 299.948 1584.96 300.382 1584.87 299.919C1584.81 299.291 1584.81 298.659 1584.87 298.03H1581.52L1581.06 296.755C1580.93 298.748 1580.93 298.748 1581.77 299.494L1582.07 298.55L1583.26 299.711L1584.45 299.022C1584.23 300.609 1583.13 300.911 1582.41 301.487L1582.36 302.942ZM1601.72 367.047C1602.05 367.047 1602.27 367.17 1602.35 367.047C1603.76 365.819 1605.23 364.629 1606.54 363.269C1609.19 360.441 1611.52 357.303 1613.48 353.918C1614.55 352.453 1615.36 350.807 1615.89 349.054C1616.08 348.213 1615.41 348.402 1615.33 348.005C1613.62 351.425 1612.1 354.976 1609.7 357.923C1607.29 360.87 1604.44 363.977 1601.72 367.047ZM1347.42 298.332C1345.74 299.277 1345.16 300.987 1344.39 302.564C1343.61 304.141 1343.32 305.719 1342.66 307.211C1341.94 308.818 1341.54 310.554 1341.48 312.321C1341.41 314.106 1340.25 315.825 1341.13 317.676C1341.39 317.274 1341.62 316.847 1341.82 316.401C1341.87 316.073 1341.89 315.742 1341.89 315.41C1342.15 314.238 1342.44 313.067 1342.71 311.905C1342.98 310.744 1343.62 309.44 1343.4 308.127C1344.69 305.341 1345.22 302.205 1346.84 299.626C1347.07 299.21 1347.26 298.778 1347.42 298.332ZM1586.72 348.685L1586.31 348.44C1586.03 348.947 1585.68 349.411 1585.28 349.819C1584.81 350.187 1584.02 350.178 1583.64 350.603C1582.84 351.359 1581.92 351.958 1580.91 352.369C1580.58 353.946 1579.17 354.39 1578.18 355.203C1577.37 355.873 1576.54 356.506 1575.77 357.215C1575.55 357.422 1575.51 357.838 1575.38 358.159C1576.21 357.81 1576.67 357.016 1577.62 357.29C1578.32 357.488 1578.25 356.846 1578.53 356.487C1578.82 356.128 1579.73 356.27 1579.76 356.081C1579.91 355.061 1580.67 354.9 1581.36 354.485C1582.1 354.051 1582.78 353.507 1583.37 352.87C1583.91 352.19 1584.62 352.237 1585.24 352.048L1584.69 350.584H1586.77L1586.72 348.685Z" fill="#4162FF" fill-opacity="0.1"/>
</g>
<g filter="url(#filter1_f_152_2707)">
<path d="M331.263 278.49C331.622 278.316 331.72 278.295 331.741 278.251C333.06 275.11 335.007 272.337 336.731 269.337C336.879 269.233 337.049 269.441 337.346 269.535C337.906 269.147 337.883 268.105 338.754 267.873C338.951 267.813 339.028 267.316 339.004 266.901C338.974 266.702 338.984 266.498 339.034 266.304C339.085 266.109 339.174 265.927 339.296 265.77C339.418 265.613 339.57 265.484 339.743 265.392C339.916 265.3 340.106 265.246 340.3 265.234C340.726 265.46 340.001 265.842 340.373 266.121C341.37 265.883 340.726 264.958 340.941 264.452C341.155 263.945 341.616 264.581 341.884 264.322C341.982 263.927 341.604 263.927 341.455 263.73C342.365 260.791 342.448 261.319 344.406 259.273C344.611 258.323 343.69 258.155 343.209 257.489C344.71 257.728 343.706 255.874 344.94 255.761C345.301 256.207 345.221 256.977 345.72 257.57C345.96 256.94 346.563 256.538 346.282 255.769C346.193 255.575 346.144 255.363 346.138 255.148C346.132 254.933 346.169 254.719 346.247 254.519C346.324 254.319 346.441 254.139 346.589 253.988C346.738 253.837 346.915 253.72 347.109 253.644C347.366 253.497 347.467 253.077 347.624 252.813L347.016 252.136C347.157 252.082 347.291 251.971 347.378 252.008C347.769 252.16 348.155 252.52 348.52 252.494C348.884 252.468 349.725 252.457 349.406 251.659C349.183 251.094 350.332 251.173 349.776 250.532C349.707 250.496 350.196 250.573 350.445 250.586C350.941 250.365 350.142 249.577 350.871 249.452C351.014 249.443 351.149 249.383 351.255 249.283C351.36 249.183 351.429 249.048 351.451 248.902C351.585 247.039 352.862 246.411 354.337 245.97C354.337 245.97 354.402 245.84 354.43 245.782C354.459 245.724 354.624 245.602 354.794 245.455L354.802 246.991C354.246 247.764 353.421 247.045 352.779 247.526C352.632 248.14 352.656 248.785 352.848 249.386C353.757 249.703 353.569 248.637 354.059 248.322C354.344 248.201 354.603 248.022 354.819 247.795C355.035 247.567 355.205 247.297 355.317 247C355.597 246.268 355.943 245.565 356.35 244.902C356.722 245.158 357.163 245.282 357.609 245.256C358.054 245.231 358.48 245.057 358.822 244.76C359.203 243.986 358.439 243.645 358.212 243.105C358.825 242.682 359.63 243.692 359.803 245.125C361.52 245.122 360.623 243.461 361.242 242.758C361.747 242.341 362.107 243.216 362.586 242.922C363.132 242.117 362.305 241.707 362.134 241.233C362.576 240.783 362.648 240.082 363.169 239.847C363.289 239.318 362.214 239.214 362.839 238.569C363.423 238.331 363.545 238.76 363.668 239.208C364.53 239.245 364.963 238.152 365.887 238.276C365.873 237.999 365.791 237.729 365.648 237.494C365.505 237.258 365.306 237.065 365.071 236.932C366.093 236.215 364.897 234.231 366.805 234.001C367.037 234.352 366.284 235.057 367.335 235.194C367.972 234.774 367.355 233.919 367.788 233.291C368.225 232.769 368.71 232.293 369.236 231.868C369.494 232.132 369.362 232.847 370.043 232.588C370.159 232.511 370.244 232.393 370.28 232.256C370.317 232.118 370.303 231.972 370.242 231.845C370.201 231.744 370.179 231.636 370.179 231.526C370.179 231.416 370.201 231.308 370.242 231.207C370.284 231.107 370.344 231.015 370.42 230.94C370.497 230.864 370.587 230.805 370.686 230.766C371.823 230.456 372.403 229.459 373.294 228.864C374.041 228.347 374.537 227.323 375.697 227.719C375.76 227.752 375.947 227.587 375.99 227.482C376.286 226.772 377.055 226.623 377.462 226.118C377.869 225.613 378.629 225.641 379.039 225.184C379.584 224.56 380.623 224.791 380.834 224.309C381.229 223.506 382.174 224.481 382.294 223.559C383.014 223.777 383.64 223.415 384.322 223.211L385.077 221.677C385.404 221.542 385.766 221.532 386.098 221.65C386.431 221.767 386.712 222.004 386.891 222.318C387.554 222.167 387.459 221.396 387.896 221.026L388.722 221.135L389.346 219.869L390.249 219.946C390.748 219.435 389.904 218.432 390.93 218.081C391.165 218.087 390.984 218.42 391.287 218.553C391.509 217.977 392.435 217.866 392.317 216.873C393.06 216.919 393.675 217.902 394.594 217.002L395.538 215.085C397.105 215.066 398.554 214.32 400.122 214.53C400.178 214.131 399.807 214.117 399.596 213.813C399.849 213.299 400.701 213.641 400.86 213.032C401.019 212.423 401.55 212.613 401.985 212.534C402.502 212.341 403.056 212.284 403.599 212.366L403.976 211.6C404.064 211.535 404.168 211.5 404.276 211.499C404.383 211.499 404.488 211.533 404.575 211.598C404.751 211.69 404.931 211.77 405.117 211.838C405.651 211.574 405.566 210.927 406.172 210.446C406.588 210.209 407.562 210.643 407.98 209.579C408.069 209.398 408.705 209.68 409.134 209.505C410.385 209.001 411.739 208.842 412.96 208.221C413.575 207.919 414.25 207.773 414.929 207.795C415.605 207.815 416.126 207.152 416.728 206.841C417.329 206.53 418.109 207.107 418.568 206.319C418.714 206.023 419.096 206.444 419.321 206.344C419.838 206.116 420.386 206.343 420.965 205.883C421.825 205.189 423.122 205.611 424.149 205.079C425.018 204.632 425.991 204.445 426.957 204.541C427.786 204.643 428.272 203.495 429.14 204.055C430.333 203.419 431.73 203.602 432.974 203.094C433.449 202.873 433.975 202.797 434.49 202.875C434.854 202.958 435.376 202.076 435.578 203.077C436.197 202.784 436.71 202.19 437.531 202.488C437.691 202.572 437.812 202.007 438.319 202.066C439.373 202.177 440.411 201.659 441.507 201.793C441.826 201.848 442.152 201.845 442.47 201.783C444.609 200.817 446.902 201.393 449.089 200.937C449.303 200.895 449.501 200.744 449.704 200.743C451.217 200.76 452.742 201.184 454.244 200.83C455.687 200.567 457.161 200.547 458.61 200.771C459.444 200.865 460.18 200.407 460.966 200.668C461.827 200.864 462.726 200.764 463.526 200.382L463.985 201.236C464.887 200.245 466.083 200.441 467.169 200.541C467.563 200.575 467.958 200.583 468.353 200.566C470.862 200.465 473.374 200.631 475.851 201.061C476.117 201.066 476.384 201.045 476.647 200.999C477.943 200.913 479.234 201.24 480.346 201.937C481.228 202.522 484.422 203.11 485.788 203.122C488.493 203.131 491.205 203.09 493.903 203.186C495.801 203.279 497.705 203.503 499.603 203.705C501.641 203.997 503.699 204.113 505.756 204.054C506.107 205.234 507.214 204.935 508.073 205.208C509.052 205.526 509.484 204.131 510.451 204.488C511.223 204.44 511.081 205.406 511.619 205.599C512.215 205.604 512.094 204.939 512.461 204.695C512.827 204.451 513.08 204.831 513.156 205.319C513.169 205.453 513.253 205.479 513.443 205.361C514.061 205.052 514.766 204.984 515.428 205.172C515.878 205.321 516.359 205.339 516.819 205.224C517.553 204.965 517.992 205.343 518.172 206.05C519.096 205.727 519.936 205.342 520.979 205.976C521.439 206.22 522.272 205.476 522.919 206.092C523.138 205.964 523.392 205.918 523.64 205.963C523.887 206.008 524.112 206.139 524.276 206.336C524.923 206.97 525.01 205.758 525.677 206.011C527.486 206.713 529.44 206.89 531.313 207.463C532.296 207.755 533.246 208.486 534.419 208.195C534.798 208.122 534.807 208.693 535.005 208.934C535.36 208.821 535.697 208.708 536.059 208.58C536.581 208.966 537.401 208.963 537.693 209.746C537.826 210.118 537.979 209.898 538.151 209.852C539.862 209.682 541.408 210.473 543.039 210.734C544.242 210.934 545.23 211.84 546.312 211.93C548.098 212.073 549.314 213.747 551.134 213.571C552.252 214.409 553.732 214.564 554.633 215.861C555.048 216.446 556.028 216.6 556.697 217.028C559.057 218.614 561.334 220.349 562.904 222.822C563.631 223.973 564.187 225.326 565.154 226.203C566.207 227.189 566.813 228.495 567.874 229.467C568.722 230.263 569.104 231.596 569.68 232.695C570.632 234.512 571.507 236.398 573.121 237.728C573.361 237.96 573.56 238.235 573.707 238.539C574.332 239.682 575.27 240.617 575.899 241.698C576.668 242.755 577.317 243.9 577.833 245.111C578.328 246.696 579.586 247.946 579.532 249.806C579.5 250.782 580.147 251.755 580.286 252.758C580.329 253.685 580.533 254.596 580.887 255.448C581.118 255.908 581.036 256.54 581.115 257.093C581.354 258.788 582.239 260.259 582.607 261.905C582.8 262.746 583.126 263.53 583.277 264.403C583.427 265.276 583.934 265.909 584.127 266.677C585.015 270.732 586.321 274.725 586.121 278.952C586.098 279.588 586.827 280.001 586.771 280.4C586.686 280.966 586.918 281.389 586.938 281.847C587.202 284.331 587.504 286.808 587.662 289.308C587.689 289.861 587.896 290.618 587.321 291.125C586.915 291.485 587.202 291.975 587.241 292.342C587.383 293.803 587.146 295.277 586.554 296.612C586.377 297.271 586.248 297.944 586.169 298.624L585.233 300.382C584.241 301.27 584.525 302.588 584.643 303.544C584.831 304.948 584.746 306.335 584.84 307.698C584.934 309.062 584.97 310.722 584.954 312.219C584.939 314.035 584.888 315.924 584.716 317.738C584.492 321.01 584.065 324.263 583.437 327.478C583.072 329.218 582.868 330.989 582.605 332.738C582.471 334.795 582.112 336.829 581.536 338.803C582.06 339.774 580.956 340.32 580.983 341.246C580.984 342.036 580.892 342.824 580.708 343.591C580.37 345.437 579.732 347.197 579.349 349.028C579.273 349.38 579.088 349.273 578.961 349.351C578.809 349.444 578.684 349.576 578.596 349.735C578.509 349.893 578.463 350.073 578.463 350.255C578.48 350.793 579.102 351.423 578.146 351.738C578.088 352.357 577.965 352.968 577.777 353.559C577.39 355.917 575.66 357.856 575.811 360.371C575.787 360.422 575.747 360.501 575.715 360.566C574.196 362.954 573.853 365.883 572.417 368.315C572.221 368.713 571.587 368.787 571.661 369.118C571.817 369.73 571.485 370.101 571.274 370.528C571.17 370.713 571.104 370.918 571.082 371.131C571.059 371.343 571.079 371.558 571.142 371.762C571.278 372.254 570.344 372.06 570.497 372.588C570.65 373.117 570.336 373.415 570.151 373.792C569.274 375.571 568.349 377.325 567.57 379.138C567.26 379.767 566.466 380.04 566.55 380.869C565.711 381.109 565.724 381.992 565.369 382.588C565.014 383.184 564.802 384.221 564.237 384.725C563.55 385.325 563.029 386.104 562.73 386.982C562.4 387.902 561.388 388.224 561.142 389.17C561.048 389.539 560.661 389.663 560.449 389.897C559.464 390.932 558.557 392.043 557.738 393.223C556.293 395.199 554.655 397.016 552.851 398.643C551.715 399.782 550.484 400.815 549.174 401.731C546.63 403.539 543.966 405.158 541.201 406.576C539.562 407.368 537.909 408.189 536.307 409.101C534.549 409.959 532.739 410.698 530.889 411.313C529.402 411.903 527.771 412.124 526.41 413.119C526.174 413.285 525.902 413.388 525.618 413.42C525.334 413.451 525.047 413.408 524.783 413.297L524.931 413.996C524.135 414.058 523.485 414.717 522.555 414.479C521.842 414.302 521.449 415.225 520.761 415.354C518.858 415.787 517.173 417.102 515.135 416.935C514.781 417.265 514.362 417.51 513.906 417.654C513.451 417.797 512.971 417.835 512.5 417.765C511.998 418.785 511.131 417.67 510.544 418.253C510.194 418.268 510.613 418.453 510.331 418.687C509.505 418.578 508.708 419.178 507.821 419.264C506.933 419.351 506.095 419.856 505.042 419.672C504.178 419.515 503.167 420.211 502.113 420.565L500.954 419.952L500.365 420.88C499.285 420.965 498.256 420.429 497.155 420.932C496.234 421.356 495.169 420.856 494.16 421.261C493.388 421.486 492.58 421.539 491.787 421.418C491.372 421.292 490.984 421.086 490.642 420.812C488.76 421.651 486.655 421.782 484.69 421.181C482.583 421.726 480.453 420.853 478.353 421.383C477.668 421.558 477.188 421.176 476.564 421.211C473.651 421.356 470.743 421.33 467.83 421.53C465.523 421.644 463.212 421.638 460.906 421.512C459.485 421.483 458.067 421.652 456.69 422.016C453.783 422.72 450.883 423.501 447.993 424.242C445.103 424.983 442.079 425.854 439.105 426.568C434.611 427.637 430.326 429.353 425.931 430.738C422.973 431.671 420.138 432.979 417.221 434.043C414.551 435.019 411.944 436.238 409.304 437.33C405.872 438.76 402.52 440.387 399.188 442.007C395.42 443.87 391.776 445.981 388.153 448.14C384.758 450.173 381.509 452.466 378.156 454.557C375.173 456.416 372.141 458.213 369.117 459.996C366.913 461.291 364.771 462.711 362.566 464.007C359.746 465.66 356.909 467.277 353.971 468.704C352.743 469.303 351.609 470.071 350.371 470.656C349.785 471.013 349.159 471.294 348.507 471.493C347.829 471.618 347.502 472.192 346.894 472.463C344.781 473.324 342.764 474.417 340.623 475.263C338.237 476.197 335.932 477.339 333.504 478.233C332.86 478.467 332.107 478.461 331.527 478.674C330.947 478.886 330.323 479.44 329.475 479.411C328.855 479.366 328.532 480.362 327.662 480.002C327.39 479.858 326.786 480.495 326.286 480.723C324.921 481.351 323.384 481.257 322.034 481.783C320.648 482.357 319.223 482.822 317.769 483.173C315.46 483.628 313.204 484.404 310.909 484.812C308.614 485.221 306.546 486.15 304.306 485.876C303.697 485.809 303.689 486.79 303.118 486.305C299.512 486.804 295.916 487.335 292.307 487.805C290.795 487.998 289.251 487.883 287.733 487.928C285.763 487.997 283.781 488.343 281.793 488.057C279.385 487.694 276.896 488.355 274.509 487.574C273.396 488.207 272.254 487.347 271.13 487.664C270.684 487.784 270.565 487.365 270.491 487.034C268.53 487.25 266.55 487.199 264.602 486.88C262.153 486.495 259.613 486.418 257.111 486.014C253.297 485.5 249.515 484.758 245.784 483.793C244.301 483.427 242.822 483.036 241.33 482.492C239.964 481.997 238.466 481.824 237.083 481.292C236.923 481.207 236.62 481.412 236.498 481.32C235.119 480.261 233.243 480.463 231.888 479.39C230.858 478.571 229.49 478.795 228.413 478.088C227.445 477.324 226.353 476.746 225.189 476.381C222.559 475.845 220.381 474.318 218.174 472.995C216.719 472.175 215.304 471.279 213.936 470.312C211.759 468.821 209.745 467.088 207.931 465.144C205.509 462.38 203.487 459.266 201.927 455.9C200.88 453.305 200.258 450.546 200.089 447.739C199.946 445.827 200.021 443.905 200.314 442.012C200.48 440.622 200.961 439.18 201.253 437.766C201.687 435.725 202.467 433.802 202.876 431.757C203.169 430.594 203.573 429.463 204.081 428.382C205.937 423.645 208.024 419.008 210.334 414.491C210.748 413.652 211.662 413.278 211.95 412.318C212.145 411.448 212.543 410.641 213.108 409.967C213.952 409.146 214.249 407.99 214.967 407.175C215.628 406.273 216.243 405.335 216.809 404.365C218.18 402.474 219.911 400.873 220.983 398.731C224.045 396.212 226.266 392.828 229.301 390.239C231.531 388.337 233.81 386.442 235.936 384.43C237.624 382.88 239.529 381.654 241.213 380.129C241.863 379.56 242.884 379.362 243.589 378.878C244.293 378.394 244.679 377.558 245.398 376.991C245.643 376.753 245.935 376.574 246.254 376.467C246.573 376.36 246.91 376.327 247.243 376.371C247.476 374.844 249.09 375.032 249.736 374.043C250.382 373.053 251.553 372.497 252.519 371.786C253.485 371.075 254.513 370.434 255.451 369.69C256.39 368.947 257.458 368.135 258.484 367.392C259.419 366.635 260.31 365.822 261.153 364.956C262.12 364.234 263.124 363.566 264.162 362.956C265.142 362.234 265.882 361.249 266.914 360.601C267.891 359.936 268.833 359.217 269.735 358.446C269.48 357.873 269.22 358.383 269.008 358.243C268.794 357.446 269.466 357.437 269.877 357.372C270.505 357.276 270.388 356.548 270.87 356.338C271.313 356.188 271.707 355.914 272.008 355.545C272.293 355.162 272.627 354.82 273.001 354.53C273.323 354.216 273.35 353.483 274.067 353.972C274.595 353.759 274.582 353.141 274.873 352.748C275.161 352.794 275.457 352.755 275.725 352.636C275.993 352.517 276.224 352.323 276.392 352.075C276.342 352.587 276.305 352.859 276.282 353.138C276.473 353.16 276.666 353.136 276.847 353.069C277.028 353.002 277.191 352.893 277.326 352.751C277.46 352.609 277.562 352.437 277.623 352.248C277.684 352.059 277.703 351.859 277.678 351.661C277.473 350.559 278.277 350.355 278.676 349.973C278.836 349.328 277.758 349.213 278.419 348.533C279.446 348.803 280.569 349.115 281.19 347.711C282.604 347.483 282.998 345.932 284.115 345.255C285.231 344.579 285.774 343.334 286.932 342.697C287.534 342.368 287.436 341.423 288.106 340.975C288.775 340.527 289.25 339.528 290.067 338.94C290.6 338.556 290.943 337.716 291.557 337.184C291.964 336.689 292.29 336.128 292.524 335.525L293.205 335.712C293.191 334.51 294.176 333.955 294.813 333.198C295.508 332.373 296.318 331.662 297.217 331.087C297.493 330.948 297.724 330.728 297.881 330.454C298.038 330.181 298.113 329.865 298.099 329.547C298.012 328.972 298.906 328.871 298.487 328.312C299.455 328.222 299.184 326.665 300.291 326.704C300.799 326.727 300.942 325.972 301.52 325.995C301.162 325.542 301.703 324.998 301.36 324.534C302.543 323.454 302.543 323.454 303.314 323.443C303.255 322.436 303.353 321.576 304.614 321.249C305.327 321.07 305.205 319.692 306.111 319.406C306.019 319.129 305.858 318.67 306.114 318.614C306.957 318.422 306.864 317.36 307.465 317.104C308.067 316.848 308.203 316.072 308.543 315.559C308.884 315.046 308.8 314.217 309.459 313.7C310.118 313.182 309.993 312.222 310.847 311.917C311.287 311.758 310.542 311.162 311.136 310.884C311.551 310.703 310.983 309.891 311.791 309.662C312.388 309.486 312.444 308.604 312.764 308.043C313.084 307.483 313.281 306.994 313.537 306.474C313.097 306.313 313.097 306.313 312.89 306.377C312.752 306.176 312.837 306.002 312.902 305.8C313.114 305.155 313.91 305.111 314.119 304.401C314.161 304.113 314.264 303.838 314.419 303.596C314.575 303.354 314.78 303.15 315.02 302.999C315.485 302.771 314.996 302.138 315.36 301.738C315.724 301.338 316.109 301.45 316.281 300.94C317.1 298.527 319.135 296.842 319.923 294.44C320.467 294.318 320.235 294.824 320.437 294.95C320.472 294.968 320.598 294.925 320.62 294.882C321.556 292.642 323.4 290.882 324.252 288.597C324.467 288.017 325.285 287.821 325.068 286.94C324.94 286.361 326.093 286.342 325.809 285.563C326.662 285.348 326.655 284.469 327.017 283.877C327.38 283.284 327.598 282.698 327.89 282.104C328.286 281.491 328.596 280.824 328.814 280.122C328.961 279.36 330.449 279.428 329.768 278.292C330.67 278.158 330.681 277.261 331.026 276.668C331.37 276.076 331.738 275.221 332.095 274.498C332.38 273.82 332.705 273.16 333.067 272.523C333.717 271.526 334.642 270.721 335.002 269.525C335.362 268.329 336.619 268.028 336.79 266.823L337.362 267.126C335.429 270.818 332.847 274.24 331.263 278.49ZM561.531 385.718C562.039 385.258 563.136 385.264 562.76 384.116C563.552 384.098 562.961 383.493 563.118 383.193C563.275 382.893 563.846 382.876 564.039 382.394C564.329 381.7 565.445 381.488 565.058 380.326C564.901 379.859 566.112 379.972 565.894 379.327C565.675 378.682 565.985 378.463 566.453 378.191C566.809 377.987 566.86 377.275 567.466 377.241C567.185 375.687 568.458 374.746 568.878 373.428C569.069 372.845 569.549 372.351 569.32 371.655C569.692 371.546 570.014 371.302 570.226 370.968C570.439 370.634 570.53 370.232 570.481 369.835C570.14 368.742 571.273 368.621 571.294 367.738C571.315 366.856 571.858 366.058 572.03 365.137C572.241 364.51 572.534 363.916 572.9 363.371C573.159 362.684 573.484 362.025 573.869 361.404C574.216 360.949 573.649 360.065 574.581 359.957C574.565 359.25 574.736 358.552 575.075 357.938C575.414 357.374 575.706 356.781 575.948 356.165C576.341 355.344 576.643 354.479 576.848 353.587C577.064 352.524 577.095 351.3 577.849 350.377C578.051 350.128 577.91 349.825 577.943 349.56C577.98 348.72 578.185 347.897 578.545 347.143C578.98 346.414 579.179 345.56 579.111 344.706C578.991 343.648 579.759 343.034 579.799 342.079C579.847 340.868 580.052 339.67 580.41 338.517C581.204 336.137 580.746 333.495 581.977 331.228C582.165 330.845 581.542 330.324 581.757 329.781C582.367 327.587 582.722 325.325 582.815 323.044C582.43 323.825 581.528 324.46 582.125 325.552C582.346 325.942 582.053 326.234 581.913 326.552C581.689 327.008 581.299 327.495 581.32 327.935C581.445 330.254 580.667 332.405 580.4 334.644C580.308 335.508 579.731 336.233 579.728 337.025C579.635 338.875 579.381 340.712 578.968 342.514C578.675 344.056 578.308 345.64 577.9 347.111C577.492 348.583 577.232 350.361 576.251 351.711C576.12 351.887 575.925 352.14 575.966 352.289C576.252 353.28 575.622 353.986 575.21 354.68C574.798 355.374 574.951 356.367 574.556 357.116C574.044 358.119 573.64 359.178 573.353 360.273C572.872 362.034 571.72 363.586 571.351 365.461C571.132 366.084 570.84 366.677 570.482 367.226C570.281 367.778 570.021 368.304 569.708 368.796C569.294 369.297 569.638 370.1 569.134 370.408C568.416 370.848 568.667 371.482 568.595 372.074C568.561 372.339 568.309 372.369 568.112 372.429C567.947 372.492 567.805 372.607 567.707 372.758C567.608 372.909 567.559 373.089 567.566 373.271C567.83 373.949 567.455 374.407 567.202 374.902C566.899 375.517 566.735 376.261 565.987 376.512C566.358 377.438 565.519 377.979 565.331 378.719C565.143 379.458 564.164 379.98 564.23 380.954C562.612 382.113 562.483 384.161 561.531 385.718ZM334.22 476.314C335.207 475.651 336.131 474.845 337.282 474.67C339.976 474.273 341.996 472.013 344.744 471.808C345.582 470.537 347.079 470.427 348.254 469.79C349.933 468.901 351.529 467.876 353.239 467.03C354.779 466.295 356.192 465.374 357.664 464.53C359.135 463.686 360.611 462.816 362.123 462.084C364.019 461.164 365.611 459.754 367.494 458.808C368.788 458.162 370.202 457.597 371.168 456.367C371.25 456.2 371.579 456.247 371.762 456.143C373.301 455.288 374.894 454.518 376.349 453.528C379.077 451.67 381.807 449.842 384.631 448.145C384.99 447.934 385.748 447.824 385.686 446.879C385.237 446.957 384.803 447.109 384.4 447.329C382.375 448.92 380.092 450.073 377.961 451.471C376.34 452.529 374.712 453.601 373.099 454.68C370.83 456.215 368.347 457.272 366.072 458.748C364.589 459.705 362.953 460.435 361.533 461.425C358.971 463.215 356.147 464.484 353.54 466.168C351.497 467.494 349.233 468.448 347.065 469.616C344.948 470.826 342.726 471.827 340.428 472.606C339.907 472.746 339.425 473.013 339.024 473.385C338.579 473.806 337.761 473.072 337.439 473.923C336.046 474.18 334.948 475.195 333.592 475.535C333.392 475.584 333.315 475.634 333.439 475.846C333.65 476.078 333.921 476.241 334.22 476.314ZM537.599 386.691C537.975 386.534 538.378 386.501 538.471 386.313C539.005 385.228 540.009 384.547 540.513 383.4C541.631 380.845 542.94 378.382 544.17 375.887C545.11 373.977 546.086 372.085 546.988 370.164C547.975 368.338 548.789 366.417 549.418 364.428C549.853 362.724 550.909 361.222 551.376 359.454C551.842 357.685 553.046 356.188 553.454 354.288C553.871 352.87 554.526 351.541 555.389 350.36C556.209 349.052 556.152 347.471 556.909 346.148C558.147 343.994 558.402 341.53 558.776 339.001C557.716 339.671 558.169 340.786 557.767 341.586C557.23 342.658 556.802 343.785 556.488 344.949C556.029 346.649 555.043 348.17 554.541 349.92C553.986 351.833 552.715 353.449 552.281 355.491C551.989 356.851 551.048 357.994 550.794 359.474C550.486 360.617 549.96 361.685 549.248 362.613C548.591 363.607 548.704 364.807 548.198 365.834C545.255 371.737 542.34 377.654 539.453 383.586C538.947 384.614 537.776 385.134 537.602 386.701L537.599 386.691ZM397.691 224.233C397.674 223.841 397.386 223.497 397.763 223.141C398.476 223.034 399.139 222.473 399.944 222.626C400.178 222.668 400.395 222.692 400.46 222.471C400.684 221.677 401.548 221.815 401.87 221.393C402.352 220.809 402.975 220.811 403.534 220.587C404.033 220.349 404.58 220.244 405.128 220.281C405.558 220.318 406.051 219.603 406.538 219.204C407.025 218.805 407.476 219.299 407.906 219.016C408.336 218.733 408.076 217.957 408.722 218.271C409.367 218.586 409.397 217.918 409.7 217.75C410.161 217.474 410.742 218.064 411.026 217.54C411.55 216.476 412.727 216.461 413.511 215.745L413.96 217.014C414.673 216.726 414.486 216.034 414.543 215.544C415.351 215.297 415.852 215.781 416.471 216.309C416.124 215.405 416.7 214.916 416.999 214.345C417.754 214.079 418.513 213.861 419.691 213.381C416.458 212.8 414.531 214.926 412.219 215.618C412.131 215.279 412.088 214.974 411.592 214.82C410.852 216.107 409.288 215.926 408.095 216.471L408.282 217.236C407.146 217.756 405.918 217.909 404.867 218.702C404.405 219.051 403.666 219.444 403.097 219.188C402.005 218.71 401.163 219.24 400.398 219.774C400.021 220.04 399.808 219.918 399.504 219.894C399.199 219.869 399.24 219.982 399.368 220.169C399.572 220.541 400.21 220.423 400.248 220.954C400.173 221.106 400.14 221.298 400.049 221.359C399.295 221.781 398.369 221.537 397.654 221.915C396.94 222.294 396.532 223.282 395.637 223.529C395.567 223.548 395.499 223.573 395.433 223.603C394.938 223.341 395.393 222.022 394.087 222.389L394.681 224.755C395.803 224.62 396.643 223.879 397.674 224.233L397.691 224.233ZM544.699 387.723C546.548 386.149 547.408 383.922 548.483 381.828C549.941 378.869 551.3 375.859 552.852 372.959C555.011 369.004 556.378 364.693 558.391 360.678C558.469 360.556 558.534 360.425 558.584 360.288C558.712 359.505 558.926 358.74 559.222 358.008C559.631 357.066 560.096 356.152 560.615 355.27C561.186 354.451 560.9 353.46 561.376 352.636C561.908 351.762 562.362 350.839 562.734 349.88C563.096 348.895 564.115 348.148 563.757 346.892C563.754 346.818 563.77 346.744 563.802 346.679C563.835 346.613 563.883 346.557 563.942 346.516C565.037 346.293 564.691 345.352 564.858 344.656C564.918 343.734 565.187 342.838 565.643 342.044C565.679 341.972 565.593 341.789 565.563 341.655C565.46 341.571 565.334 341.526 565.204 341.524C565.075 341.523 564.948 341.567 564.844 341.648C564.418 341.924 565.037 342.453 564.763 342.955C563.848 344.813 563.024 346.718 562.295 348.663C561.191 351.316 560.526 354.183 558.954 356.625C558.889 356.755 558.748 356.9 558.765 357.009C558.976 358.133 558.325 358.974 557.824 359.794C557.323 360.614 557.352 361.715 556.949 362.605C555.322 366.231 553.394 369.698 551.996 373.464C550.706 376.958 548.773 380.203 547.123 383.553C546.963 383.878 546.886 384.339 546.646 384.522C545.396 385.237 545.329 386.643 544.699 387.723ZM572.048 345.098C571.043 345.478 571.686 346.493 571.306 347.158C569.582 350.158 568.89 353.669 567.089 356.646C566.929 356.972 566.6 357.3 566.612 357.616C566.746 358.736 566.158 359.574 565.66 360.405C565.163 361.236 565.172 362.326 564.765 363.205C563.698 365.531 562.631 367.876 561.369 370.099C560.107 372.322 559.654 374.992 558.384 377.266C557.353 379.109 556.51 381.071 555.569 382.981C555.413 383.19 555.324 383.444 555.314 383.708C555.303 383.973 555.372 384.233 555.511 384.455C555.872 382.329 557.401 381.388 558.093 379.821C558.711 378.406 559.413 377.035 560.132 375.683C560.851 374.33 561.029 372.701 561.755 371.28C562.766 369.316 563.991 367.456 564.405 365.167C564.604 364.05 565.439 363.069 565.882 361.991C566.325 360.912 567.114 359.989 567.185 358.613C567.24 357.538 568.124 356.51 568.644 355.454C569.001 354.731 569.634 354.017 569.665 353.258C569.685 352.074 570.518 351.275 570.677 350.255C570.872 349.133 571.262 348.057 571.828 347.079C572.177 346.443 571.955 345.769 572.048 345.098ZM329.877 467.63L330.099 468.358C329.302 468.457 328.591 469.311 327.732 468.501C327.494 468.912 327.283 469.34 327.102 469.781C326.936 470.314 326.508 470.379 326.118 470.474C325.729 470.568 325.643 469.939 325.325 469.762C324.731 470.414 324.141 471.059 323.557 471.708C323.196 471.371 323.985 470.84 323.034 470.519C322.887 471.462 321.71 470.921 321.268 471.8C321.4 472.129 321.551 472.449 321.72 472.76C321.948 473.118 322.338 472.522 322.567 472.825C322.603 473.145 322.293 473.382 322.504 473.704C322.666 473.197 323.743 473.348 323.348 472.4C324.201 472.04 325.086 471.769 325.99 471.591C326.815 471.393 327.617 471.106 328.383 470.733C329.291 470.562 330.169 470.249 330.987 469.805C331.783 469.353 332.605 468.954 333.45 468.61C334.173 468.221 334.925 467.89 335.697 467.619C336.522 467.285 337.315 466.871 338.065 466.383C338.969 465.994 339.848 465.545 340.697 465.041C337.491 465.012 335.166 466.928 332.548 466.691C332.113 467.09 332.143 467.708 331.745 467.926L329.877 467.63ZM383.02 286.825C382.129 287.074 381.304 287.529 380.606 288.155C378.879 289.731 377.247 291.402 375.475 292.926C373.107 294.965 370.715 297 368.52 299.277C367.361 300.487 365.797 301.483 365.556 303.508C367.102 302.368 368.587 301.141 370.005 299.835C371.973 297.822 374.069 295.977 376.197 294.157C377.112 293.498 377.954 292.735 378.707 291.883C379.471 290.938 380.322 290.072 381.248 289.297C381.968 288.603 382.874 288.015 383.02 286.825ZM510.779 311.424C511.308 311.083 511.651 311.083 511.951 310.831C513.329 309.554 514.63 308.19 515.846 306.746C517.102 305.426 518.267 304.016 519.332 302.527C520.385 300.996 521.863 299.908 522.992 298.436C524.523 296.66 525.905 294.752 527.121 292.732C527.744 291.575 527.601 290.186 528.37 289.125C528.453 289.002 528.519 288.868 528.566 288.727C528.648 288.561 528.759 288.337 528.307 288.307C527.582 289.619 526.8 290.957 525.976 292.254C524.737 294.215 523.523 296.163 522.141 298.021C521.585 298.803 520.972 299.54 520.308 300.225C519.569 300.956 519.113 301.882 518.399 302.634C516.583 304.537 514.766 306.439 513.057 308.443C512.328 309.28 511.283 309.866 510.773 311.42L510.779 311.424Z" fill="#4162FF" fill-opacity="0.08"/>
</g>
<defs>
<filter id="filter0_f_152_2707" x="1002.69" y="69.052" width="826.31" height="723" filterUnits="userSpaceOnUse" color-interpolation-filters="sRGB">
<feFlood flood-opacity="0" result="BackgroundImageFix"/>
<feBlend mode="normal" in="SourceGraphic" in2="BackgroundImageFix" result="shape"/>
<feGaussianBlur stdDeviation="100" result="effect1_foregroundBlur_152_2707"/>
</filter>
<filter id="filter1_f_152_2707" x="0.0184631" y="0.381714" width="787.702" height="687.787" filterUnits="userSpaceOnUse" color-interpolation-filters="sRGB">
<feFlood flood-opacity="0" result="BackgroundImageFix"/>
<feBlend mode="normal" in="SourceGraphic" in2="BackgroundImageFix" result="shape"/>
<feGaussianBlur stdDeviation="100" result="effect1_foregroundBlur_152_2707"/>
</filter>
</defs>
</svg>
