<svg width="154" height="105" viewBox="0 0 154 105" fill="none" xmlns="http://www.w3.org/2000/svg">
<path d="M7.37386 68.188L20.0597 63.5707L33.3985 100.219L20.7126 104.836L7.37386 68.188Z" fill="#4162FF"/>
<path d="M24.1536 39.7329L36.8394 35.1156L57.3607 91.4972L44.6748 96.1145L24.1536 39.7329Z" fill="#FFAD0D"/>
<path d="M58.1199 58.4974L70.8057 53.8802L81.3228 82.7757L68.637 87.393L58.1199 58.4974Z" fill="#4162FF"/>
<path d="M77.2082 36.3853L89.8941 31.768L105.285 74.0541L92.5991 78.6714L77.2082 36.3853Z" fill="#FFAD0D"/>
<path d="M110.405 53.0355L123.091 48.4183L129.247 65.3327L116.561 69.95L110.405 53.0355Z" fill="#4162FF"/>
<path d="M122.824 12.5994L135.51 7.98209L153.209 56.6112L140.523 61.2285L122.824 12.5994Z" fill="#FFAD0D"/>
</svg>
