<svg width="193" height="134" viewBox="0 0 193 134" fill="none" xmlns="http://www.w3.org/2000/svg">
<path opacity="0.4" d="M39.6385 105.848C32.1571 108.571 26.7993 115.105 26.5429 132.787L192.164 72.5055L166.256 1.32381C159.08 3.93549 157.056 19.5685 149.438 22.3414C142.419 24.8961 143.387 33.784 140.509 34.8313C137.907 35.7785 135.969 34.501 134.017 35.2113C132.065 35.9217 135.38 45.0282 131.477 46.4489C128.874 47.396 125.29 45.6449 121.061 47.184C116.833 48.7231 116.908 57.0989 113.353 58.3926C103.92 61.826 102.625 45.1094 96.4443 47.3588C91.2399 49.2531 93.5785 58.7148 87.7235 60.8458C80.2421 63.5688 77.6517 50.3792 72.7725 52.1551C66.5922 54.4045 77.9053 74.3503 67.8205 78.0209C59.6885 80.9807 61.6229 87.8656 57.2645 89.5021C52.9061 91.1386 47.0134 88.6637 43.1101 90.0844C37.2551 92.2155 46.144 103.481 39.6385 105.848Z" fill="url(#paint0_linear_848_753)" fill-opacity="0.45"/>
<path d="M26.5429 132.787C26.7993 115.105 32.1571 108.571 39.6385 105.848C46.144 103.481 37.2551 92.2155 43.1101 90.0844C47.0134 88.6637 52.9061 91.1386 57.2645 89.5021C61.6229 87.8656 59.6885 80.9807 67.8205 78.0209C77.9053 74.3503 66.5922 54.4045 72.7725 52.1551C77.6517 50.3792 80.2421 63.5688 87.7235 60.8458C93.5785 58.7148 91.2399 49.2531 96.4443 47.3588C102.625 45.1094 103.92 61.826 113.353 58.3926C116.908 57.0989 116.833 48.7231 121.061 47.184C125.29 45.6449 128.874 47.396 131.477 46.4489C135.38 45.0282 132.065 35.9217 134.017 35.2113C135.969 34.501 137.907 35.7785 140.509 34.8313C143.387 33.784 142.419 24.8961 149.438 22.3414C157.056 19.5685 159.08 3.9355 166.256 1.32381" stroke="#4162FF" stroke-width="1.5" stroke-linecap="round" stroke-linejoin="round"/>
<path d="M26.5429 132.787C26.7993 115.105 35.076 115.094 42.5574 112.371C49.063 110.003 45.0365 99.5688 50.8915 97.4378C54.7949 96.0171 59.9659 96.1045 64.3243 94.468C68.6827 92.8315 66.0877 82.6941 74.2197 79.7343C84.3045 76.0637 75.5514 65.8143 81.7317 63.5649C86.6109 61.789 86.0815 65.0526 93.5629 62.3296C99.4179 60.1986 99.4912 47.7777 104.696 45.8834C110.876 43.634 110.792 66.4229 120.225 62.9896C123.78 61.6958 131.405 70.0527 135.633 68.5136C139.862 66.9746 133.641 52.7326 136.243 51.7854C140.147 50.3647 135.459 42.4742 139.403 41.0389C143.346 39.6037 143.701 39.4743 146.304 38.5272C149.181 37.4799 146.842 35.2605 153.861 32.7058C161.479 29.9328 169.855 34.5616 177.031 31.9499" stroke="#FFAD0D" stroke-width="1.5" stroke-linecap="round" stroke-linejoin="round"/>
<defs>
<linearGradient id="paint0_linear_848_753" x1="75.7963" y1="10.4488" x2="109.353" y2="102.646" gradientUnits="userSpaceOnUse">
<stop stop-color="#4162FF"/>
<stop offset="1" stop-color="#4162FF" stop-opacity="0"/>
</linearGradient>
</defs>
</svg>
